<?xml version="1.0" ?><!DOCTYPE svg  PUBLIC '-//W3C//DTD SVG 1.1//EN'  'http://www.w3.org/Graphics/SVG/1.1/DTD/svg11.dtd'><svg enable-background="new 0 0 128 128" id="Слой_1" version="1.1" viewBox="0 0 128 128" xml:space="preserve" xmlns="http://www.w3.org/2000/svg" xmlns:xlink="http://www.w3.org/1999/xlink"><path d="M14,69H9c-2.8,0-5-2.2-5-5v0c0-2.8,2.2-5,5-5h5" fill="#E5E6E6"/><rect fill="#E5E6E6" height="10" width="40" x="44" y="59"/><path d="M114,59h5c2.8,0,5,2.2,5,5v0c0,2.8-2.2,5-5,5h-5" fill="#E5E6E6"/><path d="M94,89.1h5c2.8,0,5-2.2,5-5v-40c0-2.8-2.2-5-5-5h-5" fill="#FFFFFF"/><path d="M24,79.1h-5c-2.8,0-5-2.2-5-5v-20c0-2.8,2.2-5,5-5h5" fill="#FFFFFF"/><path d="M104,79.1h5c2.8,0,5-2.2,5-5v-20c0-2.8-2.2-5-5-5h-5" fill="#FFFFFF"/><path d="M34,89.1h-5c-2.8,0-5-2.2-5-5v-40c0-2.8,2.2-5,5-5h5" fill="#FFFFFF"/><path d="M39,94.1L39,94.1c-2.8,0-5-2.2-5-5v-50c0-2.8,2.2-5,5-5h0c2.8,0,5,2.2,5,5v50C44,91.9,41.8,94.1,39,94.1z" fill="#FFFFFF"/><path d="M89,94.1L89,94.1c2.8,0,5-2.2,5-5v-50c0-2.8-2.2-5-5-5h0c-2.8,0-5,2.2-5,5v50C84,91.9,86.2,94.1,89,94.1z" fill="#FFFFFF"/><path d="M119,57.5h-3.5v-3.4c0-3.6-2.9-6.5-6.5-6.5h-3.5v-3.5c0-3.6-2.9-6.5-6.5-6.5h-3.7c-0.7-2.9-3.3-5-6.3-5  c-3.6,0-6.5,2.9-6.5,6.5v18.4h-37V39.1c0-3.6-2.9-6.5-6.5-6.5c-3.1,0-5.6,2.1-6.3,5H29c-3.6,0-6.5,2.9-6.5,6.5v3.5H19  c-3.6,0-6.5,2.9-6.5,6.5v3.4H9c-3.6,0-6.5,2.9-6.5,6.5s2.9,6.5,6.5,6.5h3.5v3.6c0,3.6,2.9,6.5,6.5,6.5h3.5v3.5  c0,3.6,2.9,6.5,6.5,6.5h3.7c0.7,2.9,3.3,5,6.3,5c3.6,0,6.5-2.9,6.5-6.5V70.5h37v18.6c0,3.6,2.9,6.5,6.5,6.5c3.1,0,5.6-2.1,6.3-5H99  c3.6,0,6.5-2.9,6.5-6.5v-3.5h3.5c3.6,0,6.5-2.9,6.5-6.5v-3.6h3.5c3.6,0,6.5-2.9,6.5-6.5S122.6,57.5,119,57.5z M9,67.5  c-1.9,0-3.5-1.6-3.5-3.5s1.6-3.5,3.5-3.5h3.5v7H9z M19,77.6c-1.9,0-3.5-1.6-3.5-3.5v-20c0-1.9,1.6-3.5,3.5-3.5h3.5v27H19z   M25.5,84.1v-40c0-1.9,1.6-3.5,3.5-3.5h3.5v47H29C27.1,87.6,25.5,86.1,25.5,84.1z M42.5,89.1c0,1.9-1.6,3.5-3.5,3.5  s-3.5-1.6-3.5-3.5v-50c0-1.9,1.6-3.5,3.5-3.5s3.5,1.6,3.5,3.5V89.1z M45.5,67.5v-7h37v7H45.5z M92.5,89.1c0,1.9-1.6,3.5-3.5,3.5  s-3.5-1.6-3.5-3.5v-50c0-1.9,1.6-3.5,3.5-3.5s3.5,1.6,3.5,3.5V89.1z M102.5,84.1c0,1.9-1.6,3.5-3.5,3.5h-3.5v-47H99  c1.9,0,3.5,1.6,3.5,3.5V84.1z M112.5,74.1c0,1.9-1.6,3.5-3.5,3.5h-3.5v-27h3.5c1.9,0,3.5,1.6,3.5,3.5V74.1z M119,67.5h-3.5v-7h3.5  c1.9,0,3.5,1.6,3.5,3.5S120.9,67.5,119,67.5z" fill="#4A374F"/></svg>