<svg width="79" height="79" viewBox="0 0 79 79" fill="none" xmlns="http://www.w3.org/2000/svg">
<path d="M38.9371 38.0546C44.1651 38.0546 48.6915 36.1795 52.391 32.48C56.0893 28.7811 57.965 24.2553 57.965 19.0267C57.965 13.7999 56.0899 9.27346 52.3904 5.57336C48.6909 1.87506 44.1645 0 38.9371 0C33.7084 0 29.1826 1.87506 25.4837 5.57396C21.7848 9.27286 19.9091 13.7993 19.9091 19.0267C19.9091 24.2553 21.7848 28.7817 25.4837 32.4806C29.1838 36.1789 33.7103 38.0546 38.9371 38.0546ZM28.7577 8.84734C31.5959 6.00913 34.9253 4.6295 38.9371 4.6295C42.9482 4.6295 46.2782 6.00913 49.117 8.84734C51.9553 11.6862 53.3355 15.0162 53.3355 19.0267C53.3355 23.0384 51.9553 26.3678 49.117 29.2067C46.2782 32.0455 42.9482 33.4251 38.9371 33.4251C34.9265 33.4251 31.5971 32.0449 28.7577 29.2067C25.9189 26.3684 24.5386 23.0384 24.5386 19.0267C24.5386 15.0162 25.9189 11.6862 28.7577 8.84734Z" fill="#F1E8E8"/>
<path d="M72.2308 60.7471C72.1242 59.2077 71.9084 57.5286 71.5907 55.7554C71.2701 53.9689 70.8572 52.2801 70.363 50.7365C69.8519 49.1411 69.1582 47.5656 68.2993 46.0558C67.4091 44.4887 66.3627 43.1241 65.1886 42.0013C63.9609 40.8266 62.4577 39.8821 60.7194 39.1932C58.9872 38.5079 57.0675 38.1607 55.0141 38.1607C54.2076 38.1607 53.4277 38.4916 51.9215 39.4722C50.9945 40.0768 49.9102 40.7759 48.7 41.5492C47.6651 42.2086 46.2631 42.8264 44.5315 43.3857C42.8421 43.9324 41.1268 44.2096 39.4331 44.2096C37.7407 44.2096 36.0253 43.9324 34.3347 43.3857C32.6049 42.827 31.2023 42.2092 30.1693 41.5498C28.9704 40.7838 27.8855 40.0846 26.9447 39.4716C25.4397 38.491 24.6598 38.1601 23.8533 38.1601C21.7993 38.1601 19.8802 38.5079 18.1486 39.1938C16.4115 39.8815 14.9077 40.826 13.6788 42.0019C12.5047 43.1253 11.4584 44.4893 10.5687 46.0558C9.71106 47.5656 9.01672 49.1405 8.50562 50.7371C8.01199 52.2807 7.59912 53.9689 7.27847 55.7554C6.96024 57.5262 6.74506 59.2059 6.63838 60.7489C6.53351 62.2575 6.48047 63.8276 6.48047 65.414C6.48047 69.5378 7.79139 72.8763 10.3765 75.3384C12.9296 77.7679 16.3073 78.9999 20.416 78.9999H58.455C62.5626 78.9999 65.9402 77.7679 68.494 75.3384C71.0796 72.8781 72.3906 69.5384 72.3906 65.4134C72.39 63.8216 72.3363 62.2515 72.2308 60.7471ZM65.3019 71.9842C63.6149 73.5899 61.3752 74.3704 58.4544 74.3704H20.416C17.4946 74.3704 15.2549 73.5899 13.5685 71.9848C11.914 70.4099 11.11 68.26 11.11 65.414C11.11 63.9337 11.1588 62.4721 11.2564 61.0689C11.3517 59.6923 11.5463 58.1801 11.8351 56.5733C12.1201 54.9863 12.483 53.497 12.9145 52.1487C13.3286 50.8558 13.8933 49.5757 14.5937 48.3425C15.2621 47.1672 16.0312 46.1588 16.8798 45.3464C17.6736 44.5863 18.6741 43.9643 19.8531 43.4978C20.9434 43.0663 22.1687 42.83 23.4989 42.7944C23.6611 42.8806 23.9498 43.0452 24.4175 43.3502C25.3692 43.9704 26.4661 44.678 27.6788 45.4524C29.0458 46.324 30.8069 47.1111 32.911 47.7904C35.0622 48.4859 37.2561 48.8391 39.4337 48.8391C41.6113 48.8391 43.8059 48.4859 45.9558 47.791C48.0617 47.1105 49.8222 46.324 51.191 45.4512C52.432 44.6581 53.4982 43.971 54.4499 43.3502C54.9176 43.0458 55.2063 42.8806 55.3685 42.7944C56.6993 42.83 57.9246 43.0663 59.0155 43.4978C60.1939 43.9643 61.1944 44.5869 61.9882 45.3464C62.8368 46.1582 63.6059 47.1666 64.2743 48.3431C64.9753 49.5757 65.5406 50.8564 65.9541 52.1481C66.3862 53.4982 66.7497 54.9869 67.0342 56.5726C67.3223 58.1825 67.5175 59.6953 67.6128 61.0696V61.0708C67.711 62.4685 67.7604 63.9295 67.761 65.414C67.7604 68.2606 66.9564 70.4099 65.3019 71.9842Z" fill="#F1E8E8"/>
</svg>
